<svg preserveAspectRatio="xMidYMid meet"  width="100%" height="100%" viewBox="0 0 600 300" xmlns="http://www.w3.org/2000/svg" version="1.1">
    <g>
        <title>Layer 1</title>
        <ellipse fill="#0268c1" cx="139.39232" cy="8.60066" transform="rotate(10.9 139.392 8.60094)" rx="12.11" ry="8.44" id="svg_205"/>
        <ellipse fill="#0180de" cx="105.05232" cy="8.54067" transform="rotate(-12.7 105.052 8.54094)" rx="10.24" ry="7.22" id="svg_206"/>
        <ellipse fill="#0256a8" cx="171.76231" cy="12.48067" transform="rotate(31.3 171.762 12.4809)" rx="11.75" ry="7.28" id="svg_208"/>
        <ellipse fill="#1fc6f4" cx="72.98233" cy="12.66066" transform="rotate(-32.5 72.982 12.6609)" rx="9.83" ry="6.06" id="svg_210"/>
        <ellipse fill="#034a9b" cx="198.65233" cy="19.48067" transform="rotate(44.7 198.652 19.4809)" rx="11.03" ry="5.29" id="svg_213"/>
        <ellipse fill="#013783" cx="218.31233" cy="28.17066" transform="rotate(53.6 218.312 28.1709)" rx="10.26" ry="3.28" id="svg_215"/>
        <ellipse fill="#0174d1" cx="141.05232" cy="38.19066" transform="rotate(20.9 141.052 38.1909)" rx="11.94" ry="10.55" id="svg_217"/>
        <ellipse fill="#0895ea" cx="103.12233" cy="38.27068" transform="rotate(-22.1 103.122 38.2709)" rx="11.6" ry="10.17" id="svg_218"/>
        <ellipse fill="#035fb6" cx="175.63234" cy="42.12065" transform="rotate(10.8 175.632 42.1209)" rx="12.98" ry="10.52" id="svg_221"/>
        <ellipse fill="#1fc6f4" cx="67.86233" cy="41.36067" transform="rotate(132.6 67.862 41.3609)" rx="10.74" ry="8.17" id="svg_222"/>
        <ellipse fill="#034a9b" cx="205.52232" cy="46.49065" transform="rotate(58.2 205.522 46.4909)" rx="12.22" ry="7.45" id="svg_224"/>
        <ellipse fill="#1fc6f4" cx="39.44232" cy="46.84065" transform="rotate(120.8 39.442 46.8409)" rx="9.95" ry="5.94" id="svg_226"/>
        <ellipse fill="#013783" cx="226.04234" cy="52.96065" transform="rotate(65.6 226.042 52.9609)" rx="10.99" ry="4.76" id="svg_229"/>
        <ellipse fill="#013783" cx="238.54234" cy="59.56065" transform="rotate(70.1 238.542 59.5609)" rx="9.67" ry="2.35" id="svg_231"/>
        <ellipse fill="#0895ea" cx="101.52232" cy="71.59065" transform="rotate(106 101.522 71.5909)" rx="11.68" ry="11.09" id="svg_233"/>
        <ellipse fill="#0174d1" cx="142.12233" cy="76.35066" transform="rotate(72.2 142.122 76.3509)" rx="13.04" ry="12.44" id="svg_234"/>
        <ellipse fill="#035fb6" cx="179.64232" cy="77.69066" transform="rotate(72 179.642 77.6909)" rx="12.63" ry="10.68" id="svg_236"/>
        <ellipse fill="#1fc6f4" cx="64.65233" cy="77.78066" transform="rotate(111 64.652 77.7809)" rx="11.51" ry="9.55" id="svg_238"/>
        <ellipse fill="#034a9b" cx="209.75233" cy="80.09065" transform="rotate(76.4 209.752 80.0909)" rx="13.08" ry="8.92" id="svg_239"/>
        <ellipse fill="#1fc6f4" cx="35.09233" cy="80.21065" transform="rotate(102.9 35.092 80.2109)" rx="10.63" ry="7.17" id="svg_242"/>
        <ellipse fill="#1fc6f4" cx="14.76233" cy="83.13066" transform="rotate(101.1 14.762 83.1309)" rx="8.98" ry="4.24" id="svg_245"/>
        <path fill="#213458" d="m90.46234,112.78065q0,1.14999 1.03,0.62001c8.21997,-4.28 18.76999,-6.53 27.04999,-2.66q9.37,4.38 12.09998,14.64001c1.21002,4.53 0.99005,9.48999 0.99005,14.45q0.00995,14.08998 -0.03003,33.96001a0.63,0.63 0 0 1 -0.63,0.63l-14.63,0q-0.61002,0 -0.61002,-0.60001q0.02002,-36.79002 0.01001,-37.85002q-0.01999,-6.34 -1.52997,-8.76001q-3.07999,-4.93997 -9.23004,-4.22998q-7.47,0.87 -13.63998,4.35999a1.74,1.74 0 0 0 -0.88998,1.52002l0,44.89q0,0.65997 -0.64999,0.65997l-14.51997,0q-0.67,0 -0.67,-0.66998l0,-88.42a0.83,0.82 90 0 1 0.81999,-0.83002l14.44002,0q0.59,0 0.59,0.62003l0,27.66998l-0.00003,0z" id="svg_247"/>
        <ellipse fill="#1fc6f4" cx="13.96233" cy="115.41066" transform="rotate(85.1 13.962 115.411)" rx="8.81" ry="4.37" id="svg_249"/>
        <ellipse fill="#1fc6f4" cx="34.35232" cy="116.85066" transform="rotate(84 34.352 116.851)" rx="10.47" ry="7.11" id="svg_250"/>
        <ellipse fill="#1fc6f4" cx="57.84233" cy="116.81065" transform="rotate(84.4 57.842 116.811)" rx="10.45" ry="7.15" id="svg_251"/>
        <rect fill="#1fc6f4" x="0.35233" y="106.81066" transform="rotate(-3.8 2.14203 113.851)" width="3.58" height="14.08" rx="1.72" id="svg_252"/>
        <path fill="#213458" d="m257.40231,148.43065a0.51,0.51 0 0 0 -0.48999,0.66q3.66998,11.79002 16.32001,13.00999q10.42999,1 20.68997,-3.69998q1.90005,-0.87 1.90005,1.22l0,12.53998a1.15,1.15 0 0 1 -0.85004,1.11005c-12.11002,3.29999 -28.13,4.12 -39.22,-1.99005c-9.44998,-5.19995 -14.71997,-14.08997 -15.42001,-24.93999c-1.01996,-15.63998 4.99005,-31.19998 20.98004,-36.31998q4.37,-1.40002 11.12,-1.14001c21.64999,0.82999 28.06,21.04001 26.35999,39.32999q-0.02002,0.22 -0.24002,0.22l-41.14999,0zm0.12,-13.10999l25.38,0a0.12,0.12 0 0 0 0.12,-0.12001l0,-0.09a12.81,12.67 0 0 0 -12.80997,-12.67001l0,0a12.81,12.67 0 0 0 -12.81003,12.67001l0,0.09a0.12,0.12 0 0 0 0.12,0.12001z" id="svg_255"/>
        <rect fill="#213458" x="135.60233" y="110.01066" width="15.88" height="64.4" rx="0.44" id="svg_257"/>
        <path fill="#213458" d="m184.63235,153.55066q0.50998,1.53998 1.03995,0.01001l14.81003,-43.27a0.32,0.31 8.899999618530273 0 1 0.29999,-0.20999l13.84003,0a0.7,0.69 9.899999618530273 0 1 0.65997,0.92999q-9.79999,27.13 -19.03,52.73c-1.47,4.08002 -2.64999,8.12 -5.80002,10.09998c-4.20996,2.64001 -10.14996,2.38 -13.81995,-1.06q-1.70001,-1.58997 -3.19003,-5.70996q-9.75998,-26.96001 -20.06998,-56.21001a0.59,0.59 0 0 1 0.56,-0.78l15.5,0q0.58997,0 0.78,0.56001l14.42001,42.90997z" id="svg_258"/>
        <path fill="#213458" d="m360.8223,153.17065q0.38,1.40002 0.77002,0.01001l12.09003,-42.87999q0.06995,-0.27002 0.35004,-0.27002l14.05994,0a0.44,0.43 8.399999618530273 0 1 0.41998,0.56q-13.20001,42.89 -17.35992,56.55003q-1.69006,5.56995 -5.32007,7.32996q-3.69995,1.79004 -8.31,0.82001c-6.82001,-1.44 -7.27997,-6.32001 -9.01001,-13.16998q-3.14001,-12.44998 -4.97998,-20.31998q-0.20001,-0.85001 -0.40997,-0.01001q-3.12006,12.23996 -6.10004,24.72003q-1.5,6.23999 -5.82996,8.07996q-4.42004,1.88 -9.03,0.34003q-4.81,-1.60999 -6.88004,-8.40997q-3.54001,-11.60007 -16.84,-55.78006a0.53,0.53 0 0 1 0.50003,-0.68996l14.75995,0q0.56003,0 0.72003,0.54999l11.91998,41.17003q0.37,1.31 0.72,-0.01001l10.66,-41.01004a0.94,0.94 0 0 1 0.90997,-0.70998l9.98004,0q0.65002,0 0.82001,0.62999l11.38995,42.5l0,-0.00003z" id="svg_259"/>
        <rect fill="#213458" x="217.18233" y="110.11066" width="15.6" height="64.3" rx="0.61" id="svg_261"/>
        <path fill="#ffffff" d="m257.52231,135.32066a0.12,0.12 0 0 1 -0.12,-0.12001l0,-0.09a12.81,12.67 0 0 1 12.81003,-12.67001l0,0a12.81,12.67 0 0 1 12.80997,12.67001l0,0.09a0.12,0.12 0 0 1 -0.12,0.12001l-25.38,0z" id="svg_267"/>
        <ellipse fill="#1fc6f4" cx="5.46233" cy="141.00066" transform="rotate(73.1 5.46203 141.001)" rx="7.11" ry="1.91" id="svg_269"/>
        <ellipse fill="#1fc6f4" cx="17.35232" cy="146.42067" transform="rotate(71.4 17.352 146.421)" rx="8.45" ry="3.8" id="svg_271"/>
        <ellipse fill="#1fc6f4" cx="37.45233" cy="151.84065" transform="rotate(64.7 37.452 151.841)" rx="9.27" ry="5.79" id="svg_273"/>
        <ellipse fill="#1fc6f4" cx="60.91232" cy="151.78066" transform="rotate(64.2 60.912 151.781)" rx="9.11" ry="5.84" id="svg_274"/>
        <rect fill="#1fc6f4" x="10.93232" y="158.30066" transform="rotate(-26.3 12.022 164.471)" width="2.18" height="12.34" rx="1.06" id="svg_277"/>
        <ellipse fill="#1fc6f4" cx="24.20233" cy="173.13066" transform="rotate(57.8 24.202 173.131)" rx="7.63" ry="2.66" id="svg_279"/>
        <ellipse fill="#1fc6f4" cx="67.14233" cy="181.33067" transform="rotate(49.3 67.142 181.331)" rx="8.36" ry="4.38" id="svg_281"/>
        <ellipse fill="#1fc6f4" cx="43.65233" cy="181.41066" transform="rotate(49.9 43.652 181.411)" rx="8.3" ry="4.47" id="svg_282"/>
        <path fill="#0174d1" d="m83.55231,190.98068q-0.86996,-1.36002 -1.67996,-2.69003q-0.41,-0.66998 -0.51001,0.11002q-0.38004,3.05002 -0.10001,7.94q0.06998,1.31 -1.07999,1.32999q-0.06,0 -0.26004,0.02002a1.28,1.18 87.19999694824219 0 1 -1.31,-1.28003l0.08005,-12.75998a0.85,0.85 0 0 1 0.71997,-0.84q2.05002,-0.28 3.17999,1.61002q1.49002,2.48996 3.07001,4.94q0.87,1.35995 1.67999,2.69q0.41,0.66995 0.51001,-0.11002q0.38,-3.04999 0.09998,-7.94q-0.06998,-1.31 1.08005,-1.33002q0.05997,0 0.26001,-0.01999a1.28,1.18 87.19999694824219 0 1 1.30997,1.28l-0.08002,12.76001a0.85,0.85 0 0 1 -0.72,0.84q-2.04999,0.28 -3.17996,-1.61002q-1.48999,-2.48999 -3.07004,-4.93997z" id="svg_285"/>
        <path fill="#0268c1" d="m101.7023,195.20068q0.75,-0.01001 1.58002,-0.31a2.26,2.25 80 0 0 1.47998,-2.12l0,-9.06006q0,-1.06995 1.06006,-1l0.56995,0.03003q0.88004,0.06 0.92004,0.95001q0.15997,4.17999 0,8.95001c-0.10001,3.19 -2.26001,5 -5.61005,5c-3.34995,0.01996 -5.51996,-1.78003 -5.62994,-4.97003q-0.18005,-4.76999 -0.04001,-8.95001q0.03,-0.88995 0.91,-0.95996l0.56995,-0.03q1.06006,-0.08002 1.07001,0.98996l0.04004,9.06a2.26,2.25 -80.30000305175781 0 0 1.48999,2.12003q0.83002,0.29001 1.58997,0.30002z" id="svg_286"/>
        <path fill="#0174d1" d="m151.13235,188.54068l3.56995,0.22q0.99005,0.06 0.93005,1.06l-0.04004,0.62a1,0.99 1.7999999523162842 0 1 -1,0.92999l-3.21997,0q-0.54004,0 -0.76004,0.5q-0.46997,1.08002 -0.33997,2.31q0.05997,0.53998 0.58997,0.65997q2.57004,0.59003 5.03,0.17004a1.53,1.51 -14 0 1 1.70001,1.01001l0.17999,0.52997q0.42004,1.25 -0.89996,1.25l-8.51001,0a0.97,0.97 0 0 1 -0.97003,-0.96997l0,-11.43002a2.59,2.58 -90 0 1 2.58002,-2.59l6.69,0a0.82,0.81 -90 0 1 0.81,0.82001l0,0.45996q0,1.25003 -1.23999,1.25003l-4.89001,0q-1.13998,0 -1.20996,1.12997l-0.05002,0.87003q-0.07004,1.12997 1.05002,1.20001z" id="svg_287"/>
        <path fill="#0180de" d="m168.68234,193.01068l3.22998,3.22998a0.82,0.81 69.19999694824219 0 1 -0.61996,1.39001l-2.27005,-0.15002a0.86,0.86 0 0 1 -0.73999,-0.52002q-1.24997,-3.01996 -2.78998,-4.57996a0.81,0.81 0 0 0 -1.38,0.57001l0,3.84q0,0.82999 -0.83002,0.82999l-1.12997,0q-0.92001,0 -0.92001,-0.91998q-0.01999,-9.19 0.09003,-11.07001q0.05002,-0.79004 0.85001,-1.85999c1.09,-1.46002 4.60999,-1.14001 6,-0.78003q1.91995,0.51001 2.58997,2.39001q1.39005,3.91998 -2.01999,6.58997q-0.61996,0.48004 -0.05997,1.04004l-0.00003,0zm-3.33484,-3.22723a2.39,2.11 106.4000015258789 0 0 2.69904,-1.69708a2.39,2.11 106.4000015258789 0 0 -1.3494,-2.88849a2.39,2.11 106.4000015258789 0 0 -2.69901,1.69711a2.39,2.11 106.4000015258789 0 0 1.34937,2.88846z" id="svg_288"/>
        <path fill="#0174d1" d="m237.46234,187.90067c1.67999,-1.94998 3.41,-5.44998 6.98996,-5.12997a0.61,0.61 0 0 1 0.38,1.03998l-4.44995,4.44q-0.68005,0.69 -0.12003,1.46997q2.98999,4.19 5.92001,7.04004q0.76001,0.75 -0.31,0.84998l-1.89008,0.16998a2.02,2.02 0 0 1 -1.85992,-0.87997q-1.86005,-2.75998 -3.65002,-4.84998q-1.74002,-2.03 -1.77002,0.63998l-0.03,3.69q-0.00998,1.54999 -1.50995,1.53998q-0.13,-0.01001 -0.16,-0.01001q-1.42004,0 -1.42004,-1.51996l0.08002,-12.49002q0,-1.22 1.22,-1.22l0.43002,0a1.22,1.22 0 0 1 1.21997,1.16998l0.15002,3.78003a0.45,0.44 -25.700000762939453 0 0 0.78,0.26999z" id="svg_289"/>
        <path fill="#0174d1" d="m252.15234,188.97064l0,7.75a0.87,0.87 0 0 1 -0.87003,0.87l-0.85999,0q-0.86002,0 -0.86002,-0.87l0,-12.36996a1.36,1.36 0 0 1 1.13995,-1.34q1.96002,-0.32001 3.26001,1.87q1.54999,2.57996 4.46002,6.76001q0.66,0.94995 0.66,-0.21002l0,-7.22998q0,-1.17004 1.14999,-1.44q0.28998,-0.06 0.64001,0a0.9,0.89 -84.5 0 1 0.71997,0.88l0,13.53998q0,0.44 -0.42996,0.52997q-1.86002,0.42004 -2.50003,-0.51996q-3.08002,-4.54999 -5.57001,-8.48999q-0.93997,-1.5 -0.93997,0.26996l0.00003,0z" id="svg_290"/>
        <path fill="#0174d1" d="m290.77231,182.73068q1.63,-0.01004 2.04004,2.29996q0.43997,2.49005 1.66998,6.25q0.23999,0.75 0.52002,0.01001q0.58997,-1.52997 1.74997,-7.14001a1.77,1.77 0 0 1 1.73001,-1.40997l0.37997,0q1.14999,0 0.86002,1.10999l-3.21002,12.36005a1.92,1.92 0 0 1 -1.87994,1.42999q-1.64001,-0.03003 -1.96005,-1.79004q-1.28995,-7.08997 -1.87,-7.08997q-0.58997,0.01001 -1.80997,7.10999q-0.29999,1.76001 -1.94,1.79999a1.92,1.92 0 0 1 -1.89999,-1.40994l-3.32004,-12.33005q-0.29999,-1.10999 0.85004,-1.12l0.38,0a1.77,1.77 0 0 1 1.73996,1.39001q1.20999,5.59998 1.82004,7.13q0.27997,0.73999 0.51999,-0.02002q1.18997,-3.76999 1.60999,-6.25998q0.39001,-2.32001 2.01999,-2.32001z" id="svg_291"/>
        <path fill="#0268c1" d="m306.90231,194.41064a0.8,0.8 0 0 0 0.79999,0.80002l4.16,0a0.99,0.99 0 0 1 0.99002,0.99002l0,0.38995a1.2,1.2 0 0 1 -1.21997,1.20004q-3.83005,-0.07004 -5.21002,-0.36002q-2.64001,-0.56 -2.54001,-3.52002q0.34,-9.47998 0.38,-10.19q0.06003,-1.26996 1.14999,-1.13998l0.54999,0.06003q0.94,0.10999 0.94,1.04999l0,10.71997z" id="svg_292"/>
        <path fill="#0174d1" d="m319.56235,191.24066a0.71,0.71 0 0 0 -0.71002,0.71002l0,2.52997a0.66,0.66 0 0 0 0.64999,0.66003l5.38998,0.09a0.69,0.58 50.20000076293945 0 1 0.22003,0.04001q1.92001,0.57996 1.65997,1.64996q-0.19995,0.85004 -1.10001,0.85004l-8.97,0q-0.55997,0 -0.59998,-0.56003q-0.21002,-3.45999 -0.09006,-10.56998q0.06006,-3.25 2.38,-3.64001q3.33002,-0.57001 6.86002,-0.01001q1.09003,0.16998 1.09003,1.27002l0,0.34998a0.66,0.66 0 0 1 -0.65997,0.66003l-5.38998,0a1.42,1.42 0 0 0 -1.42001,1.41998l0,0.70999q0,1.25 1.26001,1.25l3.31995,0q0.88,0 0.88,0.88l0,0.55002q0,1.15997 -1.16995,1.15997l-3.60001,0z" id="svg_293"/>
        <path fill="#0174d1" d="m329.31235,184.87067a2.1,2.1 0 0 1 2.12997,-2.06l3.80002,0.06a6.82,6.51 1 0 1 6.70996,6.63l-0.03998,1.95996a6.82,6.51 1 0 1 -6.92999,6.39001l-3.79999,-0.07001a2.1,2.1 0 0 1 -2.06,-2.12997l0.19,-10.78zm2.69995,1.34l-0.01996,7.86002a1.13,1.13 0 0 0 1.12,1.13l1.56,0.00998a4.21,3.9 0.20000000298023224 0 0 4.22998,-3.88998l0,-2.32001a4.21,3.9 0.20000000298023224 0 0 -4.19,-3.91003l-1.55994,-0.00995a1.13,1.13 0 0 0 -1.14008,1.12997z" id="svg_294"/>
        <path fill="#0174d1" d="m363.80234,186.70068l0,0.81q0,1.37 1.36005,1.17999q1.65991,-0.23999 3.81995,0.07001q0.56,0.07996 0.50006,0.64996c-0.22003,2.09003 -2.51007,1.87 -4.29004,1.80002q-1.37006,-0.05002 -1.37006,1.32001l0,1.56998q0,1.11002 1.12,1.12l4.97003,0.07001a1.39,1.21 0.699999988079071 0 1 1.37,1.22003l-0.01001,0.28998q0,0.90002 -0.83002,0.97998q-4.57996,0.42004 -8.30994,-0.10999a1.51,1.5 3.9000000953674316 0 1 -1.30005,-1.48999l0,-10.51001a2.57,2.55 83.0999984741211 0 1 1.94,-2.48999q3.54999,-0.88 7.52008,-0.28998q0.80994,0.12 0.90991,0.94q0.04004,0.28998 0.03003,0.39999q-0.07996,1.10999 -1.10999,1.10001l-4.90002,-0.04004q-1.41998,-0.01001 -1.41998,1.41003z" id="svg_295"/>
        <path fill="#048ae6" d="m123.85233,190.91064q-0.08002,-1.96997 -0.84003,-0.13995q-0.81995,1.98999 -1.97995,5.98999a1.48,1.47 -85.5999984741211 0 1 -1.20999,1.04999q-1.72003,0.23001 -2.25,-1.5q-1.20001,-3.91 -1.82004,-5.88998q-0.85001,-2.68997 -1,0.01999q-0.05997,1.09003 -0.02002,6.23999q0.01001,0.97998 -0.97,1.07004q-0.34998,0.02997 -0.66998,-0.06003q-1.19,-0.29999 -1.11002,-1.53003l0.77002,-12.26996a0.9,0.89 -8.100000381469727 0 1 0.59,-0.78003q1.10999,-0.40994 2.26001,0.07001q0.48001,0.21002 0.64999,0.71002l2.60001,7.72998q0.52002,1.54999 1.14001,0.03998q1.02997,-2.52997 2.16,-6.91995c0.28998,-1.16998 1.34,-2.03003 2.49997,-1.89001a1.71,1.71 0 0 1 1.49002,1.48004q0.80002,6.42999 0.69998,12.32996q-0.01004,1.09003 -1.10004,1.03003q-0.16,0 -0.50998,-0.02002q-1.09,-0.04999 -1.13998,-1.09998l-0.23999,-5.66003l0,-0.00003z" id="svg_296"/>
        <path fill="#0180de" d="m141.6123,189.17065a0.85,0.85 0 0 0 0.23001,1.08002c2.63,2.02997 2.01001,6.33997 -1.48996,7.09q-4.11002,0.87003 -8.25003,0.20001a0.52,0.51 -85.4000015258789 0 1 -0.43002,-0.51004l0,-11.52997a2.12,2.11 -12.5 0 1 1.23001,-1.92001c3.60001,-1.67999 12.25003,-0.92001 8.70999,5.59zm-2.16,-2.60999a1.39,1.39 0 0 0 -1.38995,-1.39001l-2.12,0a1.39,1.39 0 0 0 -1.39005,1.39001l0,0.70001a1.39,1.39 0 0 0 1.39005,1.38998l2.12,0a1.39,1.39 0 0 0 1.38995,-1.38998l0,-0.70001zm0.82224,6.1048a1.48,1.48 0 0 0 -1.44598,-1.51318l-2.73932,-0.06219a1.48,1.48 0 0 0 -1.51321,1.44604l-0.02588,1.13971a1.48,1.48 0 0 0 1.44601,1.51324l2.73929,0.06216a1.48,1.48 0 0 0 1.51318,-1.44608l0.02591,-1.13971z" id="svg_297"/>
        <path fill="#0268c1" d="m178.5123,185.71063a1.13,1.12 40.70000076293945 0 0 0.16,2.08005c3.05002,0.98001 7.42001,2.72 6.45004,6.48996c-0.98999,3.83002 -6.21002,3.77005 -9.36005,2.77005a1.04,1.03 -73.69999694824219 0 1 -0.67996,-1.25003l0.10001,-0.39999q0.23999,-0.92001 1.15997,-0.70999c2.23004,0.51001 4.34003,0.95001 5.87003,-0.48001a1.64,1.29 33.29999923706055 0 0 -0.78,-2.31q-0.52002,-0.24002 -4.23001,-1.56q-0.62997,-0.22 -1.70999,-2.16q-0.74002,-1.32001 -0.03,-2.54999c1.70999,-2.97003 4.54996,-3.16003 7.61002,-2.37q0.97998,0.25 0.97998,1.26001l0,1.01999q0,0.98999 -0.88,0.51999q-2.58002,-1.38 -4.66003,-0.35004z" id="svg_298"/>
        <path fill="#0268c1" d="m200.6723,182.89069q1.82004,-0.05005 4.03,-0.01001q1.11005,0.02997 1.47003,1.07996q0.07999,0.21002 -0.00998,0.55005q-0.19003,0.72998 -0.95001,0.72998l-2.20004,0q-0.83997,0 -0.86996,0.84998q-0.09,2.29004 0.01001,9.54004q0.03,2.19 -1.51999,2.19q-1.55002,-0.01001 -1.51001,-2.20001q0.13998,-7.25 0.06,-9.53998q-0.03,-0.85001 -0.87,-0.85001l-2.20001,-0.01004q-0.75998,-0.00998 -0.94,-0.73999q-0.09,-0.33997 -0.00998,-0.54999q0.35995,-1.04999 1.47995,-1.07001q2.21002,-0.02997 4.03,0.03003z" id="svg_299"/>
        <path fill="#0174d1" d="m215.45676,197.69427a7.46,7.04 86.19999694824219 0 1 -7.51892,-6.97699a7.46,7.04 86.19999694824219 0 1 6.53009,-7.91022a7.46,7.04 86.19999694824219 0 1 7.51892,6.97699a7.46,7.04 86.19999694824219 0 1 -6.53009,7.91022zm-0.479,-2.44452a4.97,4 88.9000015258789 0 0 3.90387,-5.0459a4.97,4 88.9000015258789 0 0 -4.0947,-4.89227a4.97,4 88.9000015258789 0 0 -3.9039,5.0459a4.97,4 88.9000015258789 0 0 4.09473,4.89227z" id="svg_300"/>
        <path fill="#0174d1" d="m280.50232,190.26068a7.53,7.53 0 0 1 -7.53,7.53a7.53,7.53 0 0 1 -7.53,-7.53a7.53,7.53 0 0 1 7.53,-7.53a7.53,7.53 0 0 1 7.53,7.53zm-7.28757,4.91125a4.93,4.54 86.5999984741211 0 0 4.23959,-5.19055a4.93,4.54 86.5999984741211 0 0 -4.82443,-4.65201a4.93,4.54 86.5999984741211 0 0 -4.23956,5.19058a4.93,4.54 86.5999984741211 0 0 4.8244,4.65198z" id="svg_301"/>
        <path fill="#0174d1" d="m354.0723,193.53067q-0.29999,-1.24002 -1.57996,-1.41a1.14,1.12 -84.80000305175781 0 1 -0.98004,-1.19q0.08002,-1.40997 1.70007,-1.38q2.01996,0.03998 3.25995,0.45001a0.72,0.72 0 0 1 0.48999,0.62q0.17004,2.40997 0.16003,4.21997c-0.01001,1.96002 -0.93994,2.42004 -2.71002,2.76001c-4.13,0.80002 -8.03003,-0.79999 -9.19995,-5.02997q-1.10004,-3.95001 1.25995,-7.09003q2.68005,-3.56 8.07001,-2.33997q1.17999,0.26996 1.47998,1.42999q0.09003,0.38 0.08002,0.51996q-0.10004,1.05005 -0.98999,0.80005c-2.15002,-0.63 -3.98999,-1.17004 -5.67004,0.54999q-1.62,1.65997 -1.47998,4.20001c0.17004,3.06 1.87,4.52997 4.78003,4.56998a1.36,1.35 83.4000015258789 0 0 1.32996,-1.67999z" id="svg_302"/>
        <rect fill="#ffffff" x="134.55233" y="185.17066" width="4.9" height="3.48" rx="1.39" id="svg_303"/>
        <ellipse fill="#ffffff" cx="166.02232" cy="187.49065" transform="rotate(106.4 166.022 187.491)" rx="2.39" ry="2.11" id="svg_304"/>
        <path fill="#ffffff" d="m332.0123,186.21066a1.13,1.13 0 0 1 1.14008,-1.12997l1.55994,0.00995a4.21,3.9 0.20000000298023224 0 1 4.19,3.91003l0,2.32001a4.21,3.9 0.20000000298023224 0 1 -4.22998,3.88998l-1.56,-0.00998a1.13,1.13 0 0 1 -1.12,-1.13l0.01996,-7.86002z" id="svg_305"/>
        <ellipse fill="#ffffff" cx="214.88234" cy="190.28066" transform="rotate(88.9 214.882 190.281)" rx="4.97" ry="4" id="svg_306"/>
        <ellipse fill="#ffffff" cx="272.92232" cy="190.25066" transform="rotate(86.6 272.922 190.251)" rx="4.93" ry="4.54" id="svg_307"/>
        <ellipse fill="#1fc6f4" cx="33.39233" cy="193.62065" transform="rotate(48.3 33.392 193.621)" rx="6.6" ry="1.48" id="svg_308"/>
        <rect fill="#ffffff" x="134.56234" y="191.12067" transform="rotate(1.3 137.412 193.171)" width="5.7" height="4.1" rx="1.48" id="svg_327"/>
        <ellipse fill="#1fc6f4" cx="51.70233" cy="203.16066" transform="rotate(39 51.702 203.161)" rx="7.39" ry="2.77" id="svg_334"/>
    </g>

</svg>